<svg id="Layer_1" height="512" viewBox="0 0 128 128" width="512" xmlns="http://www.w3.org/2000/svg" data-name="Layer 1"><path d="m89.064 62.921a34.5 34.5 0 1 0 -50.128 0 21.842 21.842 0 0 0 -16.496 21.079v37.5a1.75 1.75 0 0 0 1.75 1.75h79.62a1.75 1.75 0 0 0 1.75-1.75v-37.5a21.842 21.842 0 0 0 -16.496-21.079zm-25.064-54.671a31 31 0 1 1 -31 31 31.035 31.035 0 0 1 31-31zm38.06 111.5h-76.12v-35.75a18.3 18.3 0 0 1 16.172-18.1 34.43 34.43 0 0 0 43.776 0 18.3 18.3 0 0 1 16.172 18.1z"/><path d="m30.192 90.688a1.75 1.75 0 0 0 -1.75 1.75v19.062a1.75 1.75 0 0 0 3.5 0v-19.062a1.75 1.75 0 0 0 -1.75-1.75z"/></svg>